<svg id="Layer_1" data-name="Layer 1" xmlns="http://www.w3.org/2000/svg" viewBox="0 0 370.6 370.57"><defs><style>.cls-1{fill:#105fad;}.cls-1,.cls-2{fill-rule:evenodd;}.cls-2,.cls-3{fill:#fff;}</style></defs><title>Jio-GST-Bill-lite-Logo</title><path class="cls-1" d="M940.72,384.43c-102.33,0-185.28,83-185.28,185.29S838.39,755,940.72,755,1126,672.06,1126,569.72,1043.06,384.43,940.72,384.43Z" transform="translate(-755.44 -384.43)"/><path class="cls-2" d="M1035.7,501.84H849.25a7.5,7.5,0,0,1-4.34-13.64l93.23-65.44a7.71,7.71,0,0,1,8.68,0L1040,488.2A7.49,7.49,0,0,1,1035.7,501.84Z" transform="translate(-755.44 -384.43)"/><path class="cls-2" d="M1036,627.09H846.75a5.65,5.65,0,0,1,0-11.3H1036A5.65,5.65,0,0,1,1036,627.09Z" transform="translate(-755.44 -384.43)"/><path class="cls-2" d="M897.17,587.63a24.16,24.16,0,0,1-9.46,7.71,26.3,26.3,0,0,1-10.48,2.25,37.09,37.09,0,0,1-15-3,33,33,0,0,1-11.13-8,35.87,35.87,0,0,1-7-12,43.91,43.91,0,0,1-2.41-14.76,45.18,45.18,0,0,1,2.41-15,36.86,36.86,0,0,1,7-12.22,32.2,32.2,0,0,1,11.13-8.1,36.92,36.92,0,0,1,15-2.93,36.53,36.53,0,0,1,10.84,1.62,29.28,29.28,0,0,1,9.37,5,27.84,27.84,0,0,1,7,8,27.18,27.18,0,0,1,3.41,11H892.61A15,15,0,0,0,887,538a15.87,15.87,0,0,0-9.79-3,18.23,18.23,0,0,0-9.12,2.08,17.44,17.44,0,0,0-6.07,5.57,25.12,25.12,0,0,0-3.44,8,39.25,39.25,0,0,0-1.08,9.23,37.13,37.13,0,0,0,1.08,8.9,25.09,25.09,0,0,0,3.44,7.77,17.15,17.15,0,0,0,6.07,5.51,18,18,0,0,0,9.12,2.09c5.22,0,9.29-1.31,12.23-4s4.6-6.52,5.06-11.66h-16V556.6h30.44v39.25H898.81Z" transform="translate(-755.44 -384.43)"/><path class="cls-2" d="M934.79,571.74a13.79,13.79,0,0,0,1.28,6.19,11.55,11.55,0,0,0,3.52,4.11,15.15,15.15,0,0,0,5.11,2.37,23.65,23.65,0,0,0,6.13.72,27.2,27.2,0,0,0,4.56-.33,16.86,16.86,0,0,0,4.56-1.34,9.78,9.78,0,0,0,3.58-2.82,7,7,0,0,0,1.45-4.49,6.3,6.3,0,0,0-1.94-4.79,14,14,0,0,0-4.88-3.1,41.78,41.78,0,0,0-6.94-2.14c-2.58-.58-5.18-1.26-7.83-2a73.29,73.29,0,0,1-7.93-2.48,28.75,28.75,0,0,1-6.86-3.83,18.35,18.35,0,0,1-5-5.8,18,18,0,0,1-1.85-8.56,19,19,0,0,1,2.36-9.68,21.87,21.87,0,0,1,6.25-6.88,27.88,27.88,0,0,1,8.72-4,38.39,38.39,0,0,1,9.8-1.29,48,48,0,0,1,10.93,1.24,28.62,28.62,0,0,1,9.28,4.1,21.1,21.1,0,0,1,6.41,7.27A22.52,22.52,0,0,1,978,545H962.48a11.84,11.84,0,0,0-1.35-5.41,8.68,8.68,0,0,0-3.1-3.36,12.93,12.93,0,0,0-4.44-1.7,25.41,25.41,0,0,0-5.41-.5,19.82,19.82,0,0,0-3.9.39,11.06,11.06,0,0,0-3.48,1.4,9,9,0,0,0-2.59,2.59,6.84,6.84,0,0,0-1,3.83,6.67,6.67,0,0,0,.82,3.43,6.74,6.74,0,0,0,3.17,2.43,53.12,53.12,0,0,0,6.66,2.18c2.75,0.81,6.45,1.77,11,2.93,0.91,0.18,2.07.49,3.49,0.84s2.9,0.91,4.48,1.52A29,29,0,0,1,971.6,558a22.74,22.74,0,0,1,4.39,3.74,17.5,17.5,0,0,1,3.15,5.34,18.56,18.56,0,0,1,1.24,7.15,22.72,22.72,0,0,1-1.9,9.25,20.46,20.46,0,0,1-5.75,7.36,28.4,28.4,0,0,1-9.47,4.91,42.82,42.82,0,0,1-13.06,1.79A43.94,43.94,0,0,1,938.54,596a30.12,30.12,0,0,1-9.89-4.68,22.54,22.54,0,0,1-6.82-8,23.85,23.85,0,0,1-2.54-11.6h15.49Z" transform="translate(-755.44 -384.43)"/><polygon class="cls-2" points="252.47 152.26 230.74 152.26 230.74 138.84 290.21 138.84 290.21 152.26 268.44 152.26 268.44 211.41 252.47 211.41 252.47 152.26"/><path class="cls-1" d="M958,466.45a15.55,15.55,0,1,1-15.55-15.55A15.6,15.6,0,0,1,958,466.45Z" transform="translate(-755.44 -384.43)"/><path class="cls-3" d="M865.94,649.34a6.66,6.66,0,0,1,2.59,5.76,6.88,6.88,0,0,1-1.21,4.09,7.29,7.29,0,0,1-3.42,2.56v0.09a7.52,7.52,0,0,1,4.43,2.7,8,8,0,0,1,1.55,5,8.41,8.41,0,0,1-1.42,4.95,8.59,8.59,0,0,1-3.89,3,14.87,14.87,0,0,1-5.67,1H844.33V647.45h14.25Q863.35,647.45,865.94,649.34Zm-4.25,9.94a4.32,4.32,0,0,0,0-6.3,6.62,6.62,0,0,0-4-1H850v8.41h8A5.82,5.82,0,0,0,861.69,659.28Zm2.56,9.94a4.38,4.38,0,0,0-1.53-3.62,6.86,6.86,0,0,0-4.41-1.24H850V674h8.27Q864.25,674,864.25,669.21Z" transform="translate(-755.44 -384.43)"/><path class="cls-3" d="M881.07,647.45v31.07h-5.62V647.45h5.62Z" transform="translate(-755.44 -384.43)"/><path class="cls-3" d="M893.66,647.45v26.31h15.87v4.77H888V647.45h5.62Z" transform="translate(-755.44 -384.43)"/><path class="cls-3" d="M919.56,647.45v26.31h15.87v4.77H913.94V647.45h5.62Z" transform="translate(-755.44 -384.43)"/><path class="cls-3" d="M958.54,647.45v26.31h15.87v4.77H952.92V647.45h5.62Z" transform="translate(-755.44 -384.43)"/><path class="cls-3" d="M984.54,647.45v31.07h-5.62V647.45h5.62Z" transform="translate(-755.44 -384.43)"/><path class="cls-3" d="M1014,647.45v4.77h-9.85v26.31h-5.62V652.22h-9.8v-4.77H1014Z" transform="translate(-755.44 -384.43)"/><path class="cls-3" d="M1041,647.45v4.77h-17.13v8.09h15.83v4.45h-15.83v9h17.45v4.77h-23.07V647.45H1041Z" transform="translate(-755.44 -384.43)"/></svg>