<svg id="Layer_1" data-name="Layer 1" xmlns="http://www.w3.org/2000/svg" viewBox="0 0 92.39 89.25"><title>ic_add_service</title><polygon points="42 86.25 3 76.5 3 8.25 42 18.01 42 86.25" style="fill:none;stroke:#fff;stroke-linecap:round;stroke-linejoin:round;stroke-width:6px"/><line x1="15.25" y1="39.24" x2="29.61" y2="42.84" style="fill:none;stroke:#fff;stroke-linecap:round;stroke-linejoin:round;stroke-width:6px"/><line x1="15.25" y1="52.23" x2="29.61" y2="55.82" style="fill:none;stroke:#fff;stroke-linecap:round;stroke-linejoin:round;stroke-width:6px"/><line x1="15.25" y1="65.22" x2="22.43" y2="67.01" style="fill:none;stroke:#fff;stroke-linecap:round;stroke-linejoin:round;stroke-width:6px"/><line x1="15.25" y1="26.25" x2="29.61" y2="29.85" style="fill:none;stroke:#fff;stroke-linecap:round;stroke-linejoin:round;stroke-width:6px"/><line x1="68.77" y1="39.24" x2="54.4" y2="42.84" style="fill:none;stroke:#fff;stroke-linecap:round;stroke-linejoin:round;stroke-width:6px"/><line x1="68.77" y1="52.23" x2="54.4" y2="55.82" style="fill:none;stroke:#fff;stroke-linecap:round;stroke-linejoin:round;stroke-width:6px"/><line x1="68.77" y1="65.22" x2="61.58" y2="67.01" style="fill:none;stroke:#fff;stroke-linecap:round;stroke-linejoin:round;stroke-width:6px"/><line x1="68.77" y1="26.25" x2="54.4" y2="29.85" style="fill:none;stroke:#fff;stroke-linecap:round;stroke-linejoin:round;stroke-width:6px"/><line x1="42.7" y1="86.25" x2="81.7" y2="76.5" style="fill:none;stroke:#fff;stroke-linecap:round;stroke-linejoin:round;stroke-width:6px"/><line x1="42.08" y1="18.01" x2="62.2" y2="12.98" style="fill:none;stroke:#fff;stroke-linecap:round;stroke-linejoin:round;stroke-width:6px"/><line x1="81.7" y1="76.5" x2="82.03" y2="29.8" style="fill:none;stroke:#fff;stroke-linecap:round;stroke-linejoin:round;stroke-width:6px"/><line x1="89.39" y1="11.36" x2="72.67" y2="11.36" style="fill:none;stroke:#fff;stroke-linecap:round;stroke-miterlimit:10;stroke-width:6px"/><line x1="81.03" y1="3" x2="81.03" y2="19.72" style="fill:none;stroke:#fff;stroke-linecap:round;stroke-miterlimit:10;stroke-width:6px"/></svg>