<svg id="Layer_1" data-name="Layer 1" xmlns="http://www.w3.org/2000/svg" viewBox="0 0 84 84"><title>ic_add_customer</title><path d="M2173.38,6637.16a39,39,0,1,0,23.63,23.62" transform="translate(-2118.27 -6631.9)" style="fill:none;stroke:#fff;stroke-linecap:round;stroke-miterlimit:10;stroke-width:6px"/><line x1="72.72" y1="3" x2="72.72" y2="19.56" style="fill:none;stroke:#fff;stroke-linecap:round;stroke-miterlimit:10;stroke-width:6px"/><line x1="81" y1="11.28" x2="64.44" y2="11.28" style="fill:none;stroke:#fff;stroke-linecap:round;stroke-miterlimit:10;stroke-width:6px"/><path d="M2192.18,6696.33s-21.23-4.52-22.22-4.66a5.17,5.17,0,0,1-3.55-2.46c-1.26-2.4.23-5.07,1.38-7.18,2.75-5,4.82-10.93,4.74-16.71-0.1-7.43-5.35-14.09-13.25-13.85s-12.53,7.17-12.42,14.48a35.27,35.27,0,0,0,5,16.54c4.66,7.91-2.42,9.18-2.42,9.18-1,.14-21.07,4.66-21.07,4.66" transform="translate(-2118.27 -6631.9)" style="fill:none;stroke:#fff;stroke-linejoin:round;stroke-width:6px"/></svg>