<svg id="Layer_1" data-name="Layer 1" xmlns="http://www.w3.org/2000/svg" viewBox="0 0 84 77.71"><title>ic_customer_management</title><path d="M422.78,3219a29.65,29.65,0,0,0-29.49,29.75,4.26,4.26,0,0,0,4.23,4.27H448a4.26,4.26,0,0,0,4.23-4.27A29.65,29.65,0,0,0,422.78,3219Zm0-9.19a14.25,14.25,0,1,0-14.12-14.25A14.2,14.2,0,0,0,422.78,3209.83Z" transform="translate(-390.29 -3178.33)" style="fill:none;stroke:#337ab7;stroke-miterlimit:10;stroke-width:6px"/><path d="M451.94,3240.7H468a3.28,3.28,0,0,0,3.26-3.29,22.88,22.88,0,0,0-22.75-22.95,22.53,22.53,0,0,0-14.46,5.25" transform="translate(-390.29 -3178.33)" style="fill:none;stroke:#337ab7;stroke-miterlimit:10;stroke-width:6px"/><path d="M449.05,3206.67a10.4,10.4,0,1,0-10.31-10.4A10.36,10.36,0,0,0,449.05,3206.67Z" transform="translate(-390.29 -3178.33)" style="fill:none;stroke:#337ab7;stroke-miterlimit:10;stroke-width:6px"/></svg>