<svg id="Layer_1" data-name="Layer 1" xmlns="http://www.w3.org/2000/svg" viewBox="0 0 65.12 83.98"><title>ic_generate_invoice</title><line x1="22.12" y1="33.02" x2="41.77" y2="33.02" style="fill:none;stroke:#337ab7;stroke-linecap:round;stroke-linejoin:round;stroke-width:6px"/><line x1="22.12" y1="41.61" x2="41.77" y2="41.61" style="fill:none;stroke:#337ab7;stroke-linecap:round;stroke-linejoin:round;stroke-width:6px"/><path d="M963.9,562.74L952,548.93h3.27a8.6,8.6,0,0,0,0-17.19h-6.54" transform="translate(-926.71 -498.72)" style="fill:none;stroke:#337ab7;stroke-linecap:round;stroke-linejoin:round;stroke-width:6px"/><path d="M971.48,501.7l0,17.65a1.24,1.24,0,0,0,1.23,1.23l16.15,0" transform="translate(-926.71 -498.72)" style="fill:none;stroke:#337ab7;stroke-miterlimit:10;stroke-width:6px"/><path d="M935.34,501.76a5.64,5.64,0,0,0-5.62,5.62v66.69a5.64,5.64,0,0,0,5.62,5.63h47.87a5.64,5.64,0,0,0,5.62-5.62V518.29a1,1,0,0,0-.27-0.69L973.86,502a1,1,0,0,0-.73-0.31Z" transform="translate(-926.71 -498.72)" style="fill:none;stroke:#337ab7;stroke-miterlimit:10;stroke-width:6px"/></svg>