<svg id="Layer_1" data-name="Layer 1" xmlns="http://www.w3.org/2000/svg" viewBox="0 0 74.1 84.6"><title>ic_po_management</title><path d="M1571.15,5692.53h26.25a2.93,2.93,0,1,0,0-5.85h-26.25a2.93,2.93,0,1,0,0,5.85" transform="translate(-1547.22 -5670.93)" style="fill:#337ab7"/><path d="M1560.65,5708.28h36.75a2.93,2.93,0,1,0,0-5.85h-36.75a2.93,2.93,0,1,0,0,5.85" transform="translate(-1547.22 -5670.93)" style="fill:#337ab7"/><path d="M1619.67,5683.07a5.36,5.36,0,0,0-3.9-1.65h-5v-4.95a5.62,5.62,0,0,0-5.55-5.55h-52.5a5.62,5.62,0,0,0-5.55,5.55v63a5.62,5.62,0,0,0,5.55,5.55h5V5750a5.62,5.62,0,0,0,5.55,5.55h52.5a5.62,5.62,0,0,0,5.55-5.55v-63a5.36,5.36,0,0,0-1.65-3.9m-56.1,62h41.7a5.62,5.62,0,0,0,5.55-5.55v-52.2h4.65v62.4h-51.9V5745Zm41.4-5.85h-51.9v-62.4H1605v62.4Z" transform="translate(-1547.22 -5670.93)" style="fill:#337ab7"/><path d="M1560.65,5729.28h36.75a2.93,2.93,0,1,0,0-5.85h-36.75a2.93,2.93,0,1,0,0,5.85" transform="translate(-1547.22 -5670.93)" style="fill:#337ab7"/><path d="M1560.65,5718.78h36.75a2.93,2.93,0,1,0,0-5.85h-36.75a2.93,2.93,0,1,0,0,5.85" transform="translate(-1547.22 -5670.93)" style="fill:#337ab7"/></svg>