<svg id="Layer_1" data-name="Layer 1" xmlns="http://www.w3.org/2000/svg" viewBox="0 0 59.56 81"><title>ic_upload_asp</title><path d="M1609.21,7676.6h-50.26a3,3,0,0,1,0-6h50.26a3,3,0,0,1,0,6" transform="translate(-1554.3 -7595.59)" style="fill:#337ab7"/><path d="M1584.05,7603.28l20.69,25.63H1588.6v23.58h-9v-23.59H1563.4l20.65-25.59m0-7.68a3.14,3.14,0,0,0-2.43,1.14l-26.59,33a3.16,3.16,0,0,0,2.43,5.18l16.09,0v18.63a5,5,0,0,0,5,5h11.12a5,5,0,0,0,5-5V7634.9l16.09,0h0a3.16,3.16,0,0,0,2.43-5.18l-26.64-33a3.14,3.14,0,0,0-2.43-1.14" transform="translate(-1554.3 -7595.59)" style="fill:#337ab7"/></svg>